<svg width="39" height="45" viewBox="0 0 39 45" fill="none" xmlns="http://www.w3.org/2000/svg">
<circle cx="19.5" cy="18.917" r="16.1875" fill="#846D4A" stroke="#846D4A" stroke-width="4.625"/>
<path fill-rule="evenodd" clip-rule="evenodd" d="M22.3469 12.2735C22.0621 12.231 21.6518 12.2295 21.0182 12.2295H19.4511C18.9332 12.2295 18.589 12.2302 18.3232 12.2588C18.071 12.2859 17.9411 12.3339 17.8425 12.3983C17.7438 12.4628 17.647 12.5631 17.5195 12.7845C17.3853 13.0174 17.2447 13.3337 17.0344 13.8094L15.6757 16.8826C15.4422 17.4107 15.2942 17.749 15.2246 18.0009C15.1915 18.1206 15.1861 18.1879 15.1877 18.2226C15.1887 18.2464 15.1923 18.2495 15.1928 18.2499C15.1928 18.2503 15.1936 18.2543 15.214 18.2646C15.2439 18.2796 15.3063 18.3018 15.4281 18.32C15.6847 18.3582 16.0517 18.3597 16.6268 18.3597H16.971C16.9841 18.3597 16.9971 18.3597 17.01 18.3597C17.438 18.3596 17.8185 18.3596 18.12 18.4032C18.4459 18.4503 18.7876 18.5619 19.0359 18.873C19.2837 19.1835 19.3176 19.5414 19.2927 19.8699C19.2697 20.1745 19.1872 20.5474 19.0943 20.9678L18.5709 23.3355C18.4931 23.6873 18.4307 23.9712 18.3865 24.2009C18.5471 24.0328 18.7409 23.819 18.9806 23.554L23.132 18.9635C23.3981 18.6692 23.5755 18.4725 23.6937 18.3199C23.7841 18.2032 23.8069 18.1523 23.8108 18.1444C23.821 18.0555 23.7825 17.969 23.7123 17.9179C23.703 17.9152 23.65 17.8985 23.5067 17.8875C23.315 17.8728 23.0511 17.8724 22.6555 17.8724H22.6337C22.3468 17.8724 22.0991 17.8724 21.9008 17.8569C21.7005 17.8413 21.4728 17.806 21.2665 17.6848C20.8518 17.4411 20.5964 16.9973 20.5917 16.5171C20.5894 16.2786 20.6713 16.0636 20.757 15.8813C20.8419 15.7008 20.9647 15.4848 21.1071 15.2342L21.9217 13.8012C22.236 13.2484 22.4385 12.889 22.5434 12.6187C22.5936 12.4892 22.6068 12.4149 22.6086 12.3761C22.6093 12.3593 22.6077 12.3523 22.6076 12.3519C22.6076 12.3518 22.6076 12.352 22.6076 12.3519C22.6075 12.3517 22.6071 12.3508 22.6065 12.3497C22.606 12.3489 22.6057 12.3484 22.6055 12.3481C22.6051 12.3477 22.6039 12.3467 22.6015 12.3451C22.5987 12.3431 22.5939 12.3401 22.5865 12.3363C22.5531 12.319 22.4833 12.2939 22.3469 12.2735ZM22.513 11.1608C22.9066 11.2196 23.3351 11.3617 23.5808 11.7873C23.8259 12.2118 23.7363 12.6541 23.5922 13.0255C23.4536 13.3829 23.2078 13.8152 22.9216 14.3187L22.0958 15.7714C21.9397 16.0461 21.8391 16.2238 21.7751 16.36C21.727 16.4622 21.7182 16.5041 21.7168 16.511C21.7192 16.5943 21.7632 16.6695 21.8317 16.7119C21.8391 16.7143 21.8796 16.7269 21.9885 16.7354C22.1375 16.747 22.3406 16.7474 22.6555 16.7474H22.6785C23.0451 16.7474 23.3527 16.7474 23.5926 16.7658C23.8245 16.7835 24.0977 16.823 24.3267 16.9752C24.7713 17.2707 25.0025 17.7982 24.9214 18.325C24.8797 18.596 24.7259 18.8246 24.583 19.009C24.4352 19.1996 24.2285 19.4283 23.9817 19.7011L19.788 24.3384C19.4033 24.7638 19.0794 25.122 18.816 25.3517C18.682 25.4685 18.5237 25.5886 18.3471 25.6602C18.1526 25.7391 17.896 25.7727 17.641 25.6399C17.3867 25.5073 17.2671 25.2784 17.2196 25.0751C17.1763 24.8898 17.1826 24.6914 17.2003 24.5142C17.2352 24.1656 17.3396 23.6933 17.4637 23.1318L17.9874 20.7628C18.0913 20.2929 18.1547 19.9997 18.1709 19.7852C18.1785 19.6847 18.1728 19.6298 18.1668 19.6017C18.1625 19.5819 18.1587 19.5773 18.1569 19.5752C18.1568 19.575 18.157 19.5753 18.1569 19.5752C18.1568 19.575 18.1563 19.5744 18.1562 19.5743C18.1546 19.5722 18.1514 19.5679 18.134 19.5598C18.1089 19.5482 18.0577 19.5309 17.959 19.5166C17.7478 19.4861 17.4502 19.4847 16.971 19.4847L16.584 19.4847C16.0643 19.4847 15.6119 19.4848 15.2624 19.4327C14.8926 19.3776 14.4967 19.2453 14.2481 18.8607C14 18.477 14.0405 18.0617 14.1402 17.7011C14.2347 17.3594 14.4183 16.9443 14.6295 16.4666C14.6353 16.4536 14.641 16.4407 14.6467 16.4277L16.0172 13.3279C16.2127 12.8858 16.377 12.5141 16.5446 12.2231C16.7222 11.9146 16.9274 11.6523 17.2273 11.4565C17.5273 11.2605 17.8496 11.1783 18.203 11.1403C18.536 11.1045 18.9409 11.1045 19.4219 11.1045L21.0627 11.1045C21.6392 11.1045 22.135 11.1044 22.513 11.1608Z" fill="white"/>
<path d="M19.4997 43.584L28.8455 33.1777H10.1538L19.4997 43.584Z" fill="#846D4A"/>
</svg>
