<svg width="18" height="19" viewBox="0 0 18 19" fill="none" xmlns="http://www.w3.org/2000/svg">
<g clip-path="url(#clip0_40001026_19245)">
<path d="M10.9145 16.8324C10.6016 17.5051 10.3947 18.2351 10.3154 19.0006L16.9385 17.6359C17.2515 16.9634 17.4582 16.2333 17.5376 15.4678L10.9145 16.8324Z" fill="#846D4A"/>
<path d="M16.9394 13.5469C17.2523 12.8744 17.4592 12.1443 17.5385 11.3788L12.3793 12.4423V10.3978L16.9392 9.45849C17.2522 8.78598 17.459 8.05586 17.5383 7.29035L12.3791 8.35302V1.00006C11.5886 1.4303 10.8865 2.003 10.3158 2.67853V8.77827L8.2525 9.20337V0C7.46197 0.430089 6.75989 1.00294 6.18918 1.67847V9.62832L1.57249 10.5792C1.25952 11.2517 1.05249 11.9819 0.973076 12.7474L6.18918 11.6729V14.2477L0.599104 15.3991C0.286135 16.0716 0.0792565 16.8018 0 17.5673L5.85125 16.362C6.32757 16.266 6.73696 15.993 7.00312 15.6174L8.07621 14.0753V14.075C8.1876 13.9154 8.2525 13.7231 8.2525 13.5159V11.2478L10.3158 10.8227V14.9119L16.9392 13.5466L16.9394 13.5469Z" fill="#846D4A"/>
</g>
<defs>
<clipPath id="clip0_40001026_19245">
<rect width="17.5385" height="19" fill="white"/>
</clipPath>
</defs>
</svg>
